<?xml version="1.0" encoding="UTF-8" standalone="no"?>
<!DOCTYPE svg PUBLIC "-//W3C//DTD SVG 1.1//EN"
 "http://www.w3.org/Graphics/SVG/1.1/DTD/svg11.dtd">
<!-- Generated by graphviz version 14.1.4 (20260321.0153)
 -->
<!-- Title: inc/lcd_i2c_types.h Pages: 1 -->
<svg width="219pt" height="140pt"
 viewBox="0.00 0.00 219.00 140.00" xmlns="http://www.w3.org/2000/svg" xmlns:xlink="http://www.w3.org/1999/xlink">

<svg id="main" version="1.1" xmlns="http://www.w3.org/2000/svg" xmlns:xlink="http://www.w3.org/1999/xlink" xml:space="preserve">

<style type="text/css"><![CDATA[
.node, .edge {opacity: 0.7;}
.node.selected, .edge.selected {opacity: 1;}
.edge:hover path { stroke: red; }
.edge:hover polygon { stroke: red; fill: red; }
]]></style>
<script type="application/ecmascript" xlink:href="svg.min.js"/>
<svg id="graph" class="graph">
<g id="graph0" class="graph" transform="scale(1 1) rotate(0) translate(4 136)">
<title>inc/lcd_i2c_types.h</title>
<!-- Node1 -->
<g id="Node000001" class="node">
<title>Node1</title>
<g id="a_Node000001"><a xlink:title="Definições de tipos, estruturas e enumerações da biblioteca LCD.">
<polygon fill="#999999" stroke="#666666" points="153.38,-132 53.38,-132 53.38,-112 153.38,-112 153.38,-132"/>
<text xml:space="preserve" text-anchor="middle" x="103.38" y="-118.5" font-family="Helvetica,sans-Serif" font-size="10.00">inc/lcd_i2c_types.h</text>
</a>
</g>
</g>
<!-- Node2 -->
<g id="Node000002" class="node">
<title>Node2</title>
<g id="a_Node000002"><a xlink:href="lcd__i2c_8h.html" target="_top" xlink:title="API pública para controle de displays LCD via interface I2C (PCF8574).">
<polygon fill="white" stroke="#666666" points="85.75,-76 15,-76 15,-56 85.75,-56 85.75,-76"/>
<text xml:space="preserve" text-anchor="middle" x="50.38" y="-62.5" font-family="Helvetica,sans-Serif" font-size="10.00">inc/lcd_i2c.h</text>
</a>
</g>
</g>
<!-- Node1&#45;&gt;Node2 -->
<g id="edge1_Node000001_Node000002" class="edge">
<title>Node1&#45;&gt;Node2</title>
<g id="a_edge1_Node000001_Node000002"><a xlink:title=" ">
<path fill="none" stroke="#63b8ff" d="M86.26,-103.57C77.36,-94.5 66.84,-83.78 59.5,-76.3"/>
<polygon fill="#63b8ff" stroke="#63b8ff" points="83.58,-105.83 93.08,-110.51 88.58,-100.93 83.58,-105.83"/>
</a>
</g>
</g>
<!-- Node5 -->
<g id="Node000005" class="node">
<title>Node5</title>
<g id="a_Node000005"><a xlink:href="lcd__i2c__internal_8h.html" target="_top" xlink:title="Funções internas e de baixo nível para comunicação com o PCF8574.">
<polygon fill="white" stroke="#666666" points="211.12,-76 103.62,-76 103.62,-56 211.12,-56 211.12,-76"/>
<text xml:space="preserve" text-anchor="middle" x="157.38" y="-62.5" font-family="Helvetica,sans-Serif" font-size="10.00">inc/lcd_i2c_internal.h</text>
</a>
</g>
</g>
<!-- Node1&#45;&gt;Node5 -->
<g id="edge4_Node000001_Node000005" class="edge">
<title>Node1&#45;&gt;Node5</title>
<g id="a_edge4_Node000001_Node000005"><a xlink:title=" ">
<path fill="none" stroke="#63b8ff" d="M120.81,-103.57C129.88,-94.5 140.6,-83.78 148.08,-76.3"/>
<polygon fill="#63b8ff" stroke="#63b8ff" points="118.45,-100.98 113.85,-110.52 123.4,-105.93 118.45,-100.98"/>
</a>
</g>
</g>
<!-- Node3 -->
<g id="Node000003" class="node">
<title>Node3</title>
<g id="a_Node000003"><a xlink:href="example_8c.html" target="_top" xlink:title=" ">
<polygon fill="white" stroke="#666666" points="100.75,-20 0,-20 0,0 100.75,0 100.75,-20"/>
<text xml:space="preserve" text-anchor="middle" x="50.38" y="-6.5" font-family="Helvetica,sans-Serif" font-size="10.00">example/example.c</text>
</a>
</g>
</g>
<!-- Node2&#45;&gt;Node3 -->
<g id="edge2_Node000002_Node000003" class="edge">
<title>Node2&#45;&gt;Node3</title>
<g id="a_edge2_Node000002_Node000003"><a xlink:title=" ">
<path fill="none" stroke="#63b8ff" d="M50.38,-44.13C50.38,-35.9 50.38,-26.85 50.38,-20.3"/>
<polygon fill="#63b8ff" stroke="#63b8ff" points="46.88,-44.08 50.38,-54.08 53.88,-44.08 46.88,-44.08"/>
</a>
</g>
</g>
<!-- Node4 -->
<g id="Node000004" class="node">
<title>Node4</title>
<g id="a_Node000004"><a xlink:href="lcd__i2c_8c.html" target="_top" xlink:title="Implementação da biblioteca para controle de LCD HD44780 via I2C/TWI.">
<polygon fill="white" stroke="#666666" points="191.12,-20 119.62,-20 119.62,0 191.12,0 191.12,-20"/>
<text xml:space="preserve" text-anchor="middle" x="155.38" y="-6.5" font-family="Helvetica,sans-Serif" font-size="10.00">src/lcd_i2c.c</text>
</a>
</g>
</g>
<!-- Node2&#45;&gt;Node4 -->
<g id="edge3_Node000002_Node000004" class="edge">
<title>Node2&#45;&gt;Node4</title>
<g id="a_edge3_Node000002_Node000004"><a xlink:title=" ">
<path fill="none" stroke="#63b8ff" d="M78.87,-50.35C97.35,-40.84 120.89,-28.74 136.94,-20.48"/>
<polygon fill="#63b8ff" stroke="#63b8ff" points="77.3,-47.22 70.01,-54.9 80.5,-53.44 77.3,-47.22"/>
</a>
</g>
</g>
<!-- Node5&#45;&gt;Node4 -->
<g id="edge5_Node000005_Node000004" class="edge">
<title>Node5&#45;&gt;Node4</title>
<g id="a_edge5_Node000005_Node000004"><a xlink:title=" ">
<path fill="none" stroke="#63b8ff" d="M156.6,-44.13C156.3,-35.9 155.96,-26.85 155.72,-20.3"/>
<polygon fill="#63b8ff" stroke="#63b8ff" points="153.1,-44.22 156.97,-54.08 160.1,-43.96 153.1,-44.22"/>
</a>
</g>
</g>
</g>
</svg>
</svg>

<style type='text/css'>
<![CDATA[
[data-mouse-over-selected='false'] { opacity: 0.7; }
[data-mouse-over-selected='true']  { opacity: 1.0; }
]]>
</style>
<script type="application/ecmascript"><![CDATA[
document.addEventListener('DOMContentLoaded', (event) => {
  highlightEdges();
  highlightAdjacentNodes();
});
]]></script>
</svg>
